<svg width="25" height="40" viewBox="0 0 25 40" fill="none" xmlns="http://www.w3.org/2000/svg">
<path d="M12.7409 0C14.5958 0.598112 16.0471 1.25487 17.8354 2.56712C18.0673 2.78911 18.2946 3.01385 18.5172 3.24526C18.4918 3.30518 18.4526 3.37917 18.3947 3.48345C18.2872 3.67738 18.1018 3.90932 17.8686 4.13872C18.2342 4.72477 18.5668 5.31081 18.8743 5.89855C19.2621 5.57673 19.6102 5.21861 19.8899 4.81665C20.6962 5.82286 21.4222 6.89978 22.0535 8.03905C22.0116 8.21224 21.8886 8.40109 21.6533 8.6541C21.3721 8.95612 20.9329 9.26809 20.4226 9.53422C20.6368 10.1818 20.8206 10.8261 20.9716 11.4694C21.7592 11.1115 22.4796 10.647 23.0458 10.0569C23.6746 11.5182 24.1545 13.0654 24.465 14.6783C24.3236 14.936 24.0718 15.1719 23.6909 15.4227C23.154 15.7763 22.3825 16.0659 21.5438 16.2333C21.5486 16.9147 21.5174 17.5906 21.4579 18.2578C22.6654 18.0807 23.8297 17.7022 24.7793 17.0768C24.7846 17.0732 24.7905 17.0704 24.7958 17.0668C24.9345 18.7172 24.8881 20.3443 24.6801 21.9265C24.4355 22.2949 24.0263 22.5571 23.4164 22.7668C22.6324 23.0363 21.5668 23.1208 20.482 23.0115C20.2702 23.6596 20.0294 24.2956 19.7611 24.917C21.2399 25.1391 22.7502 25.0887 24.0582 24.6391C24.0939 24.6269 24.1286 24.6125 24.1641 24.5994C23.743 26.2392 23.1415 27.8144 22.381 29.3003C22.0049 29.5971 21.4971 29.7466 20.8227 29.7932C19.8382 29.8613 18.5844 29.61 17.3888 29.1217C16.9959 29.6782 16.5811 30.2163 16.145 30.7361C17.6873 31.4469 19.3589 31.8661 20.9154 31.7682C19.8618 33.314 18.6247 34.7285 17.2268 35.9762C16.7758 36.1292 16.2422 36.1312 15.5993 36.0058C14.583 35.8075 13.3915 35.222 12.3144 34.4179C12.3136 34.4184 12.3116 34.4174 12.311 34.4179C11.7654 34.839 11.202 35.2383 10.6272 35.6088C11.895 36.6579 13.3399 37.4821 14.8119 37.8552C13.5782 38.6894 12.2555 39.4082 10.8587 39.9921C10.3361 40.0369 9.76941 39.8905 9.12853 39.5786C8.31637 39.1832 7.45805 38.4933 6.69056 37.6435C4.88712 38.3615 3.01381 38.8312 1.12621 39.0096L0.937784 37.0379C2.4482 36.895 3.9637 36.533 5.44342 35.9859C4.71478 34.81 4.21438 33.5328 4.07359 32.4462C3.94888 31.4814 4.0648 30.7359 4.47395 30.1768C5.3293 30.0096 6.15607 29.7597 6.94844 29.4358C6.96665 30.1207 7.12904 30.8106 7.39517 31.4571C7.79162 32.4207 8.40296 33.3412 9.14504 34.1798C9.71171 33.8317 10.2635 33.4566 10.8025 33.055C10.1017 32.2948 9.54032 31.4703 9.22454 30.7028C8.82164 29.724 8.78279 28.9479 9.15838 28.2882C9.97859 27.7634 10.7466 27.1515 11.4575 26.4652C11.6452 26.9204 11.9007 27.3513 12.2019 27.7455C12.7816 28.504 13.5327 29.1757 14.3787 29.7468C14.8148 29.2471 15.2311 28.7302 15.6225 28.1919C14.8654 27.695 14.215 27.1227 13.7732 26.5445C13.2398 25.8465 13.0088 25.2308 13.0885 24.6291C13.6152 23.9354 14.0935 23.1913 14.5176 22.406C14.7595 22.6904 15.0321 22.9501 15.3281 23.177C16.0435 23.7248 16.8947 24.1461 17.8059 24.4505C18.0806 23.8482 18.3307 23.2333 18.5469 22.6046C17.7607 22.35 17.0511 22.003 16.5324 21.6056C15.9294 21.1438 15.6006 20.701 15.5233 20.2029C15.8441 19.3563 16.1064 18.4753 16.3074 17.5662C16.5062 17.68 16.7117 17.7804 16.9226 17.864C17.7113 18.1759 18.5899 18.3333 19.4929 18.3668C19.563 17.7147 19.6016 17.0538 19.6023 16.3851C18.8658 16.3572 18.177 16.233 17.6502 16.0246C17.1632 15.832 16.8462 15.6224 16.6611 15.363C16.7689 14.334 16.8019 13.2786 16.7472 12.207C16.816 12.218 16.8838 12.226 16.9524 12.2335C17.6536 12.3102 18.3874 12.2493 19.1125 12.0913C18.9675 11.4582 18.7876 10.8199 18.5733 10.1791C18.0578 10.2779 17.5636 10.3086 17.1675 10.2653C16.8907 10.235 16.6877 10.1853 16.5323 10.1165C16.3846 9.17112 16.1716 8.24865 15.9003 7.36069C16.343 7.28278 16.7773 7.13923 17.1971 6.95048C16.8971 6.3728 16.5698 5.79364 16.2079 5.21384C15.9524 5.31579 15.7087 5.3901 15.5001 5.42239C15.3829 5.44038 15.2859 5.45044 15.2056 5.45203C14.9996 4.96083 14.7798 4.48129 14.5405 4.01624C13.9162 2.76688 13.2263 1.44912 12.7409 0.000211605V0Z" fill="#222222"/>
</svg>
