<svg width="24" height="40" viewBox="0 0 24 40" fill="none" xmlns="http://www.w3.org/2000/svg">
<path d="M12.1341 0C10.2792 0.598112 8.82785 1.25487 7.03955 2.56712C6.80772 2.78911 6.58043 3.01385 6.35781 3.24526C6.38322 3.30518 6.42238 3.37917 6.48029 3.48345C6.58784 3.67738 6.77321 3.90932 7.00642 4.13872C6.64078 4.72477 6.30816 5.31081 6.00074 5.89855C5.61287 5.57673 5.2648 5.21861 4.98512 4.81665C4.17878 5.82286 3.45278 6.89978 2.82154 8.03905C2.86335 8.21224 2.98636 8.40109 3.22169 8.6541C3.50286 8.95612 3.94207 9.26809 4.45243 9.53422C4.23816 10.1818 4.05439 10.8261 3.90343 11.4694C3.11583 11.1115 2.39545 10.647 1.8292 10.0569C1.20039 11.5182 0.720525 13.0654 0.410037 14.6783C0.551361 14.936 0.803204 15.1719 1.18409 15.4227C1.72101 15.7763 2.49253 16.0659 3.33115 16.2333C3.32639 16.9147 3.35762 17.5906 3.41711 18.2578C2.20956 18.0807 1.0453 17.7022 0.0957373 17.0768C0.0904443 17.0732 0.0845161 17.0704 0.0792231 17.0668C-0.0594539 18.7172 -0.0130869 20.3443 0.194929 21.9265C0.439466 22.2949 0.848724 22.5571 1.45859 22.7668C2.24259 23.0363 3.30818 23.1208 4.39304 23.0115C4.60476 23.6596 4.84559 24.2956 5.11395 24.917C3.63508 25.1391 2.12476 25.0887 0.816753 24.6391C0.781078 24.6269 0.746356 24.6125 0.710893 24.5994C1.13201 26.2392 1.73351 27.8144 2.49401 29.3003C2.87013 29.5971 3.37794 29.7466 4.05227 29.7932C5.03678 29.8613 6.29059 29.61 7.48618 29.1217C7.87913 29.6782 8.29389 30.2163 8.73004 30.7361C7.18765 31.4469 5.51611 31.8661 3.95965 31.7682C5.01317 33.314 6.25026 34.7285 7.64825 35.9762C8.09921 36.1292 8.63275 36.1312 9.27575 36.0058C10.292 35.8075 11.4835 35.222 12.5606 34.4179C12.5614 34.4184 12.5634 34.4174 12.564 34.4179C13.1096 34.839 13.673 35.2383 14.2478 35.6088C12.98 36.6579 11.5351 37.4821 10.0631 37.8552C11.2968 38.6894 12.6195 39.4082 14.0163 39.9921C14.5389 40.0369 15.1056 39.8905 15.7465 39.5786C16.5586 39.1832 17.417 38.4933 18.1844 37.6435C19.9879 38.3615 21.8612 38.8312 23.7488 39.0096L23.9372 37.0379C22.4268 36.895 20.9113 36.533 19.4316 35.9859C20.1602 34.81 20.6606 33.5328 20.8014 32.4462C20.9261 31.4814 20.8102 30.7359 20.4011 30.1768C19.5457 30.0095 18.7189 29.7597 17.9266 29.4358C17.9084 30.1207 17.746 30.8106 17.4798 31.4571C17.0834 32.4207 16.472 33.3412 15.73 34.1798C15.1633 33.8317 14.6115 33.4566 14.0725 33.055C14.7733 32.2948 15.3347 31.4703 15.6505 30.7028C16.0534 29.724 16.0922 28.9479 15.7166 28.2882C14.8964 27.7634 14.1284 27.1515 13.4175 26.4652C13.2299 26.9204 12.9743 27.3513 12.6731 27.7455C12.0934 28.504 11.3422 29.1757 10.4963 29.7468C10.0602 29.2471 9.64393 28.7302 9.25246 28.1919C10.0096 27.695 10.66 27.1227 11.1018 26.5445C11.6352 25.8465 11.8662 25.2308 11.7865 24.6291C11.2598 23.9354 10.7815 23.1913 10.3574 22.406C10.1155 22.6904 9.84295 22.9501 9.54686 23.177C8.83145 23.7248 7.98033 24.1461 7.06909 24.4505C6.79438 23.8481 6.54434 23.2333 6.32806 22.6046C7.11429 22.35 7.82387 22.003 8.34259 21.6056C8.94557 21.1438 9.27437 20.701 9.35165 20.2029C9.03089 19.3563 8.76857 18.4753 8.56765 17.5662C8.36884 17.68 8.16326 17.7804 7.95239 17.864C7.16373 18.1759 6.28508 18.3333 5.38209 18.3668C5.31201 17.7147 5.27337 17.0538 5.27274 16.3851C6.00921 16.3572 6.69805 16.233 7.22481 16.0246C7.71177 15.832 8.02882 15.6224 8.21386 15.363C8.1061 14.334 8.07307 13.2786 8.1278 12.207C8.05899 12.218 7.99124 12.226 7.92264 12.2335C7.22142 12.3102 6.48759 12.2493 5.76245 12.0913C5.90748 11.4582 6.08744 10.8199 6.3017 10.1791C6.81724 10.2779 7.3114 10.3086 7.70753 10.2653C7.98425 10.235 8.18729 10.1853 8.34269 10.1165C8.49037 9.17112 8.70336 8.24865 8.97468 7.36069C8.53197 7.28278 8.09773 7.13923 7.67789 6.95048C7.9779 6.3728 8.30522 5.79364 8.66705 5.21384C8.9226 5.31579 9.16629 5.3901 9.37494 5.42239C9.49213 5.44038 9.5891 5.45044 9.66944 5.45203C9.87545 4.96083 10.0952 4.48129 10.3345 4.01624C10.9588 2.76688 11.6487 1.44912 12.1341 0.000211605V0Z" fill="#222222"/>
</svg>
