<svg width="160" height="548" viewBox="0 0 160 548" fill="none" xmlns="http://www.w3.org/2000/svg">
<path d="M159.999 27.8296H0V0H160V27.8296H159.999ZM7.8039 20.0257H152.196V7.8039H7.8039V20.0257Z" fill="#222222" fill-opacity="0.08"/>
<path d="M144.185 31.9385V44.0572H15.8137V31.9385H8.00977V51.8611H11.9117C16.3852 51.8611 20.0249 55.5008 20.0249 59.9743V63.8762H139.973V59.9743C139.973 55.5008 143.613 51.8611 148.087 51.8611H151.989V31.9385H144.185ZM132.653 56.0718H27.3459C26.966 54.5715 26.3675 53.1582 25.5948 51.8601H134.405C133.632 53.1587 133.033 54.5715 132.653 56.0718Z" fill="#222222" fill-opacity="0.08"/>
<path d="M35.841 67.9868H28.0371V548H35.841V67.9868Z" fill="#222222" fill-opacity="0.08"/>
<path d="M131.964 67.9868H124.16V548H131.964V67.9868Z" fill="#222222" fill-opacity="0.08"/>
<path d="M51.8605 67.9868H44.0566V548H51.8605V67.9868Z" fill="#222222" fill-opacity="0.08"/>
<path d="M71.8898 67.9868H64.0859V548H71.8898V67.9868Z" fill="#222222" fill-opacity="0.08"/>
<path d="M95.9211 67.9868H88.1172V548H95.9211V67.9868Z" fill="#222222" fill-opacity="0.08"/>
<path d="M115.945 67.9868H108.141V548H115.945V67.9868Z" fill="#222222" fill-opacity="0.08"/>
<path d="M35.9423 32.043H23.9297V39.8469H35.9423V32.043Z" fill="#222222" fill-opacity="0.08"/>
<path d="M55.9677 32.043H43.9551V39.8469H55.9677V32.043Z" fill="#222222" fill-opacity="0.08"/>
<path d="M75.997 32.043H63.9844V39.8469H75.997V32.043Z" fill="#222222" fill-opacity="0.08"/>
<path d="M96.0224 32.043H84.0098V39.8469H96.0224V32.043Z" fill="#222222" fill-opacity="0.08"/>
<path d="M116.046 32.043H104.033V39.8469H116.046V32.043Z" fill="#222222" fill-opacity="0.08"/>
<path d="M136.069 32.043H124.057V39.8469H136.069V32.043Z" fill="#222222" fill-opacity="0.08"/>
</svg>
