<svg width="18" height="20" viewBox="0 0 18 20" fill="none" xmlns="http://www.w3.org/2000/svg">
<path d="M16.6746 0.851513C16.6738 0.904622 16.6725 0.959801 16.6706 1.01689C16.651 1.61685 16.5691 2.41702 16.3237 3.23208C16.0783 4.04727 15.6742 4.8616 15.0205 5.50979C14.3719 6.1529 13.4582 6.65215 12.1541 6.81374L11.0283 6.95322L11.9926 7.55072C12.1486 7.64741 12.5128 7.79824 12.9804 7.8697C13.2842 7.91614 13.6435 7.93096 14.0296 7.87059C13.9003 8.02483 13.7236 8.20184 13.4989 8.38621C12.753 8.99821 11.5574 9.62666 10.0777 9.74782L10.063 9.74903L10.0483 9.75132C9.87773 9.7781 9.72024 9.81392 9.60188 9.87089C9.54916 9.89626 9.4447 9.95299 9.37429 10.0671C9.33411 10.1323 9.30489 10.217 9.30833 10.3143C9.3117 10.4098 9.34538 10.4875 9.38195 10.5431C9.44722 10.6422 9.5374 10.6958 9.58445 10.7209C9.64091 10.7509 9.70118 10.7735 9.75682 10.791C9.86908 10.8263 10.0038 10.8536 10.146 10.8737C10.4322 10.9141 10.7912 10.9313 11.1483 10.9086C11.2365 10.903 11.3266 10.8948 11.4171 10.8835C11.2554 11.0639 11.0441 11.2694 10.7862 11.4816C9.87281 12.2332 8.45492 13.0047 6.78723 13.0572C6.78722 13.0572 6.78722 13.0572 6.78721 13.0572L6.79981 13.457M16.6746 0.851513L1.36052 19.002M16.6746 0.851513C16.5667 0.927302 16.4432 1.00922 16.3021 1.09692C15.4952 1.59811 14.0994 2.29497 11.7106 3.11922L11.5801 2.74109M16.6746 0.851513L11.5801 2.74109M6.79981 13.457C4.68823 13.5235 3.6274 15.5498 2.34091 18.0071C2.13849 18.3938 1.93049 18.7911 1.71192 19.1931C0.8745 20.733 -0.554328 19.8517 0.225086 18.3606M6.79981 13.457C9.45329 13.3734 11.4823 11.5924 12.0288 10.7488L6.79981 13.457ZM0.225086 18.3606L0.584273 18.5366L0.579699 18.5459L0.579579 18.5459C0.237447 19.2004 0.466365 19.5107 0.564891 19.5686C0.621254 19.6018 0.714265 19.6214 0.849004 19.5592C0.989474 19.4943 1.17972 19.3345 1.36052 19.002M0.225086 18.3606C0.225086 18.3606 3.05591 12.5842 3.77247 11.1945M0.225086 18.3606L0.584304 18.5365L0.5844 18.5364L0.584785 18.5356L0.58632 18.5324L0.592401 18.52L0.61621 18.4715L0.707248 18.2858L1.03764 17.6126C1.31418 17.0495 1.69033 16.2842 2.08886 15.4755C2.88689 13.8562 3.77179 12.0686 4.12799 11.3778L4.13376 11.3666L4.13877 11.3552C4.13878 11.3551 4.13881 11.3551 3.77247 11.1945M1.36052 19.002C1.36051 19.002 1.36051 19.0021 1.3605 19.0021L1.71174 19.193L1.36052 19.002ZM3.77247 11.1945C3.77247 11.1945 6.74731 4.40859 11.5801 2.74109M3.77247 11.1945L4.13881 11.3551L4.13904 11.3545L4.14034 11.3516L4.14618 11.3385C4.1515 11.3266 4.15968 11.3085 4.17068 11.2845C4.19268 11.2365 4.22595 11.165 4.27023 11.0729C4.35879 10.8887 4.49128 10.6223 4.66547 10.2968C5.01415 9.64533 5.52846 8.75983 6.19052 7.82412C7.5247 5.93848 9.41567 3.91105 11.7106 3.11922L11.5801 2.74109" fill="#F6F6F6" stroke="black" stroke-width="0.8"/>
</svg>
