<svg width="39" height="39" viewBox="0 0 39 39" fill="none" xmlns="http://www.w3.org/2000/svg">
<path fill-rule="evenodd" clip-rule="evenodd" d="M19.2 38.4C29.8039 38.4 38.4 29.8039 38.4 19.2C38.4 8.59615 29.8039 0 19.2 0C8.59615 0 0 8.59615 0 19.2C0 29.8039 8.59615 38.4 19.2 38.4ZM19.2 36.864C28.9555 36.864 36.864 28.9555 36.864 19.2C36.864 9.44448 28.9555 1.536 19.2 1.536C9.44448 1.536 1.536 9.44448 1.536 19.2C1.536 28.9555 9.44448 36.864 19.2 36.864Z" fill="#222222"/>
<path d="M8.37716 23.8559L8.26987 23.898C8.21864 23.7779 8.16788 23.6906 8.11757 23.6361C8.07226 23.5837 8.01328 23.5594 7.94047 23.5633C7.87127 23.5656 7.77059 23.5928 7.63833 23.6448L4.89303 24.722C4.78937 24.7627 4.71353 24.8007 4.66553 24.8361C4.6225 24.8736 4.60046 24.9173 4.59942 24.9672C4.60195 25.0157 4.62005 25.0828 4.65372 25.1687L4.73999 25.3885C4.78208 25.4957 4.85633 25.5903 4.96276 25.6723C5.06919 25.7543 5.19783 25.8193 5.34869 25.8674C5.50312 25.914 5.66874 25.9418 5.84552 25.9509C6.02588 25.9584 6.20925 25.9422 6.39562 25.9021L6.44402 26.0254C6.3147 26.0637 6.15174 26.1215 5.95514 26.1987C5.86577 26.2338 5.73779 26.2861 5.57118 26.3556C5.40815 26.4236 5.24078 26.5017 5.06907 26.5897C5.00468 26.4046 4.92759 26.1977 4.83781 25.9689C4.7516 25.7387 4.67344 25.5343 4.6033 25.3555C4.56682 25.2625 4.52053 25.1446 4.46442 25.0016C4.40831 24.8586 4.3455 24.7038 4.276 24.5372C4.21006 24.3692 4.14164 24.2002 4.07073 24.03C4.0034 23.8584 3.93849 23.6982 3.876 23.5495L3.98324 23.5074C4.03387 23.6154 4.08043 23.6921 4.12293 23.7372C4.16682 23.786 4.22444 23.8067 4.2958 23.7993C4.36856 23.7955 4.46928 23.7684 4.59797 23.7179L7.25747 22.6742C7.38973 22.6223 7.48204 22.5737 7.53439 22.5284C7.59172 22.4853 7.61989 22.4309 7.61889 22.3653C7.62287 22.3019 7.6049 22.214 7.565 22.1018L7.67223 22.0598C7.70654 22.1577 7.75346 22.2878 7.81298 22.45C7.87258 22.6123 7.93809 22.7846 8.00967 22.9668C8.07556 23.1349 8.14192 23.2986 8.20858 23.458C8.27532 23.6175 8.33146 23.7501 8.37716 23.8559Z" fill="#222222"/>
<path d="M10.4759 27.1578L10.3848 27.2283C10.3089 27.1364 10.2416 27.0744 10.1827 27.0423C10.1269 27.0077 10.0658 27.004 9.99938 27.0311C9.93602 27.0559 9.84808 27.1116 9.73565 27.1986L7.47535 28.9459C7.36598 29.0304 7.28983 29.1014 7.24689 29.1589C7.20629 29.2194 7.1945 29.2795 7.21149 29.3391C7.23085 29.4019 7.27388 29.4827 7.34061 29.5815L7.24947 29.6519C7.18979 29.5622 7.10827 29.4505 7.00494 29.3168C6.90699 29.1838 6.80635 29.0505 6.70301 28.9168C6.58324 28.7619 6.46898 28.6172 6.36026 28.4829C6.25458 28.3462 6.16699 28.2391 6.0975 28.1618L6.18865 28.0914C6.26753 28.1808 6.3337 28.2413 6.38715 28.2728C6.44296 28.3073 6.50407 28.311 6.5705 28.2839C6.63928 28.2599 6.72835 28.2056 6.83772 28.1211L9.09805 26.3737C9.21049 26.2868 9.28545 26.2143 9.323 26.1562C9.36593 26.0987 9.37776 26.0386 9.35841 25.9759C9.34443 25.9138 9.30257 25.8346 9.23276 25.7381L9.32392 25.6676C9.38429 25.752 9.46585 25.8637 9.56845 26.0028C9.67114 26.1419 9.78234 26.2889 9.90207 26.4438C10.0054 26.5775 10.1091 26.7084 10.2131 26.8368C10.3196 26.9681 10.4071 27.0751 10.4759 27.1578Z" fill="#222222"/>
<path d="M11.053 27.8621C11.136 27.9244 11.2473 28.0064 11.387 28.1081C11.5268 28.2099 11.6677 28.3099 11.8096 28.4086C11.9641 28.5158 12.1135 28.6172 12.2576 28.7126C12.4049 28.8102 12.5085 28.8798 12.5684 28.9214C12.9784 29.2062 13.2362 29.4881 13.3417 29.767C13.4504 30.0482 13.4291 30.2975 13.278 30.5152C13.2014 30.6255 13.0862 30.7139 12.9326 30.7802C12.7813 30.8434 12.5981 30.8682 12.3831 30.8545C12.1736 30.8399 11.9401 30.7689 11.6826 30.6415L11.676 30.651C11.972 30.8845 12.1808 31.109 12.3023 31.3243C12.4293 31.5387 12.4922 31.7343 12.491 31.9111C12.4897 32.0879 12.4442 32.241 12.3544 32.3703C12.212 32.5753 12.0386 32.7073 11.834 32.7663C11.6326 32.8274 11.4052 32.8216 11.1521 32.7485C10.9042 32.6746 10.6383 32.5391 10.3545 32.3419C10.2788 32.2894 10.1695 32.2112 10.0266 32.1073C9.88591 32.0002 9.71457 31.8766 9.51274 31.7364C9.36452 31.6335 9.21829 31.5343 9.07421 31.4389C8.93221 31.3403 8.81647 31.2646 8.727 31.2118L8.79266 31.1171C8.89481 31.1787 8.97614 31.2165 9.03658 31.2304C9.10017 31.2466 9.15962 31.2317 9.21476 31.1859C9.27313 31.1423 9.34171 31.0637 9.42058 30.9501L11.0501 28.6035C11.1311 28.4867 11.1808 28.395 11.1991 28.3283C11.2228 28.2606 11.2159 28.1997 11.1786 28.1457C11.1467 28.0908 11.0828 28.0278 10.9873 27.9567L11.053 27.8621ZM12.4634 28.9818C12.3499 28.9029 12.2571 28.8783 12.1852 28.9078C12.1133 28.9373 12.0203 29.0341 11.9064 29.1981L10.2769 31.5448C10.2003 31.6552 10.1501 31.7442 10.1264 31.812C10.1059 31.8818 10.1112 31.9416 10.1423 31.9912C10.1732 32.0408 10.2329 32.0963 10.3212 32.1576C10.5231 32.2978 10.719 32.3287 10.909 32.2502C11.1044 32.1708 11.2941 31.9987 11.4781 31.7337C11.6468 31.4909 11.7171 31.2616 11.6893 31.0459C11.6646 30.8324 11.515 30.6303 11.2406 30.4398L10.8668 30.1803C10.8668 30.1803 10.8756 30.1676 10.8931 30.1424C10.9128 30.114 10.9227 30.0998 10.9227 30.0998L11.3296 30.3823C11.4652 30.4766 11.5934 30.5141 11.7141 30.4951C11.837 30.4729 11.9532 30.4133 12.0627 30.3163C12.1742 30.2162 12.2772 30.0983 12.3713 29.9627C12.5334 29.7293 12.6234 29.5324 12.6413 29.3719C12.6647 29.2104 12.6053 29.0803 12.4634 28.9818Z" fill="#222222"/>
<path d="M14.9691 30.3113C15.0697 30.3367 15.2041 30.3695 15.3722 30.4096C15.5404 30.4496 15.7089 30.4877 15.8778 30.5239C16.0618 30.5634 16.2387 30.5994 16.4084 30.6319C16.5819 30.6652 16.7044 30.6895 16.7757 30.7048C17.1436 30.7838 17.4379 30.8862 17.6583 31.0121C17.8825 31.1387 18.0389 31.2881 18.1276 31.4603C18.2172 31.6288 18.239 31.82 18.193 32.034C18.164 32.1692 18.1073 32.2965 18.0227 32.4157C17.9428 32.5322 17.8254 32.6306 17.6706 32.7113C17.5197 32.7928 17.3227 32.8409 17.0801 32.8556C16.8411 32.8711 16.5488 32.8417 16.2035 32.7676L15.6628 32.6516L15.687 32.539L16.1713 32.6429C16.3778 32.6872 16.5425 32.6794 16.6653 32.6193C16.7927 32.5563 16.8901 32.4594 16.9575 32.3286C17.0294 32.1947 17.0839 32.0415 17.1209 31.8688C17.1846 31.5722 17.1868 31.3331 17.1276 31.1514C17.0691 30.9661 16.9273 30.8493 16.702 30.8009C16.5631 30.7711 16.4662 30.7837 16.4112 30.8387C16.36 30.8945 16.3134 31.02 16.2715 31.2152L15.6721 34.0086C15.643 34.1437 15.6307 34.2471 15.635 34.3188C15.643 34.3911 15.6728 34.4446 15.7242 34.4793C15.7794 34.5147 15.8645 34.5486 15.9793 34.5811L15.9551 34.6938C15.8516 34.6637 15.7172 34.6309 15.552 34.5955C15.3914 34.5571 15.2285 34.5201 15.0633 34.4847C14.8717 34.4436 14.6911 34.4068 14.5214 34.3743C14.3524 34.338 14.2165 34.3128 14.1135 34.2986L14.1376 34.186C14.2557 34.2034 14.3452 34.2069 14.4064 34.1965C14.4713 34.1868 14.5204 34.1503 14.5536 34.0867C14.5907 34.0239 14.6237 33.925 14.6527 33.7898L15.2521 30.9965C15.2819 30.8575 15.2925 30.7538 15.2836 30.6851C15.2793 30.6135 15.2496 30.5599 15.1943 30.5245C15.1437 30.4862 15.0605 30.4526 14.9449 30.4239L14.9691 30.3113ZM15.6608 32.551C15.8064 32.5862 15.9381 32.6223 16.0559 32.6593C16.1736 32.6964 16.2782 32.7306 16.3696 32.762C16.4656 32.7905 16.5489 32.8142 16.6194 32.8333C16.9863 32.9356 17.2469 33.0661 17.4014 33.225C17.5604 33.3809 17.6393 33.5804 17.6382 33.8237L17.6307 34.4347C17.6339 34.5847 17.6478 34.6937 17.6725 34.7618C17.6979 34.8262 17.7448 34.8638 17.8133 34.8745C17.8545 34.8834 17.8918 34.8835 17.9251 34.8749C17.9591 34.8627 17.9948 34.8428 18.0321 34.8154L18.0952 34.9056C17.9614 34.9986 17.8258 35.054 17.6885 35.0716C17.5503 35.0931 17.3968 35.0856 17.2278 35.0494C17.0063 35.0018 16.8335 34.9196 16.7093 34.8026C16.589 34.6864 16.535 34.5079 16.5474 34.2671L16.5725 33.6834C16.583 33.5246 16.5824 33.3811 16.5706 33.2529C16.5626 33.1255 16.5358 33.0216 16.4902 32.9411C16.4455 32.8569 16.3687 32.8031 16.2598 32.7797L15.6515 32.6492L15.6608 32.551Z" fill="#222222"/>
<path d="M21.6043 30.6866L23.6355 33.9695C23.7169 34.091 23.7926 34.1726 23.8629 34.2142C23.9369 34.2551 23.9988 34.2728 24.0486 34.2674L24.0698 34.3806C23.9476 34.3956 23.8015 34.419 23.6317 34.4507C23.4649 34.4779 23.2946 34.5078 23.121 34.5402C22.9398 34.5741 22.7685 34.608 22.6068 34.6421C22.4445 34.6725 22.315 34.7006 22.2183 34.7265L22.1971 34.6132C22.3882 34.5697 22.5049 34.5147 22.5471 34.4482C22.5888 34.3779 22.5538 34.2536 22.4423 34.0752L21.0223 31.6802L21.1038 31.4891L20.6758 33.7781C20.6314 34.0208 20.6127 34.2138 20.6199 34.357C20.6271 34.5002 20.6566 34.606 20.7085 34.6745C20.7603 34.7429 20.8287 34.7848 20.9136 34.8002C21.0023 34.8149 21.1036 34.8135 21.2176 34.7961L21.2387 34.9094C21.1052 34.9265 20.9818 34.9456 20.8686 34.9668C20.7584 34.9835 20.6391 35.0038 20.5108 35.0277C20.4353 35.0419 20.3583 35.0582 20.2797 35.0768C20.2042 35.0909 20.1388 35.107 20.0836 35.1251L20.0625 35.0119C20.1428 34.9813 20.2159 34.9129 20.282 34.8068C20.352 34.7 20.4076 34.5275 20.449 34.2893L21.1117 30.7786C21.1886 30.7721 21.2705 30.7607 21.3573 30.7445C21.4479 30.7276 21.5302 30.7083 21.6043 30.6866ZM22.344 33.0154L22.3651 33.1286L20.6778 33.4437L20.7133 33.3199L22.344 33.0154Z" fill="#222222"/>
<path d="M24.132 29.9903C24.2208 29.9365 24.3384 29.8638 24.4849 29.7721C24.6314 29.6804 24.7769 29.5871 24.9214 29.4923C25.0786 29.389 25.2283 29.2882 25.3706 29.1902C25.5162 29.0899 25.6194 29.0198 25.6804 28.9797C25.9949 28.7731 26.2743 28.6354 26.5186 28.5668C26.7662 28.496 26.9825 28.4894 27.1674 28.5471C27.3502 28.6016 27.5018 28.7203 27.6219 28.9032C27.6978 29.0187 27.7487 29.1485 27.7743 29.2924C27.8011 29.4311 27.7889 29.5838 27.7377 29.7507C27.6898 29.9154 27.5858 30.0894 27.4259 30.2726C27.2692 30.4537 27.0432 30.6412 26.748 30.8352L26.2859 31.1389L26.2226 31.0426L26.6366 30.7706C26.8131 30.6547 26.9231 30.5318 26.9665 30.4021C27.0111 30.2672 27.0104 30.1298 26.9645 29.9899C26.9197 29.8448 26.8487 29.6984 26.7517 29.5508C26.5851 29.2973 26.4164 29.1279 26.2455 29.0426C26.0725 28.9541 25.8897 28.9731 25.6972 29.0997C25.5785 29.1777 25.5193 29.2556 25.5199 29.3333C25.5236 29.409 25.5803 29.5302 25.69 29.6971L27.2588 32.0847C27.3348 32.2003 27.3997 32.2817 27.4537 32.3289C27.5109 32.374 27.57 32.3904 27.6307 32.378C27.6948 32.3635 27.7785 32.3268 27.8823 32.2678L27.9455 32.3641C27.8514 32.4168 27.7338 32.4895 27.5926 32.5823C27.4525 32.6697 27.3118 32.7598 27.1707 32.8526C27.007 32.9601 26.854 33.0629 26.7117 33.1611C26.5673 33.2559 26.4538 33.335 26.3714 33.3984L26.3081 33.3022C26.4034 33.2304 26.4688 33.169 26.5043 33.1182C26.543 33.0652 26.5514 33.0045 26.5295 32.9362C26.5107 32.8658 26.4634 32.7728 26.3875 32.6573L24.8187 30.2696C24.7406 30.1508 24.6741 30.0705 24.619 30.0287C24.565 29.9814 24.506 29.9651 24.442 29.9795C24.3791 29.9887 24.2968 30.0244 24.1953 30.0865L24.132 29.9903ZM26.2128 31.0697C26.3401 30.9907 26.4582 30.9222 26.5673 30.8644C26.6762 30.8066 26.7741 30.7561 26.8606 30.7129C26.9483 30.6646 27.0237 30.6219 27.0867 30.5851C27.4171 30.3956 27.6931 30.3016 27.9146 30.3031C28.1372 30.2992 28.3347 30.3831 28.5071 30.5547L28.9372 30.9888C29.0462 31.0918 29.1337 31.1585 29.1995 31.1887C29.2632 31.2158 29.3229 31.2087 29.3785 31.1675C29.4138 31.1443 29.4401 31.1178 29.4574 31.0882C29.4725 31.0552 29.4834 31.0159 29.4901 30.9701L29.5986 30.9884C29.5709 31.1491 29.5151 31.2845 29.4314 31.3947C29.3496 31.5081 29.2366 31.6123 29.0922 31.7072C28.9028 31.8316 28.723 31.897 28.5525 31.9033C28.3853 31.9075 28.2202 31.8206 28.0574 31.6428L27.6593 31.2151C27.5535 31.0963 27.4509 30.996 27.3513 30.9144C27.255 30.8306 27.1621 30.7768 27.0728 30.7527C26.9814 30.7255 26.8892 30.7424 26.7961 30.8036L26.2762 31.1452L26.2128 31.0697Z" fill="#222222"/>
<path d="M28.8976 25.8484L28.9869 25.9211C28.9147 26.0158 28.8696 26.0955 28.8516 26.1601C28.8307 26.2223 28.841 26.2827 28.8824 26.3412C28.9209 26.3973 28.9952 26.4702 29.1054 26.56L31.3204 28.3643C31.4276 28.4517 31.5141 28.5097 31.5798 28.5385C31.6479 28.5643 31.7091 28.5621 31.7633 28.532C31.82 28.499 31.8889 28.4387 31.9701 28.3512L32.0594 28.424C31.9855 28.5025 31.8952 28.6073 31.7885 28.7383C31.6812 28.8638 31.5743 28.9922 31.4675 29.1231C31.3439 29.275 31.229 29.4191 31.1228 29.5555C31.0136 29.6895 30.9293 29.799 30.8698 29.8843L30.7805 29.8116C30.8497 29.7144 30.8936 29.6362 30.9121 29.577C30.933 29.5148 30.9228 29.4544 30.8813 29.3959C30.8423 29.3344 30.7692 29.26 30.662 29.1727L28.447 27.3682C28.3368 27.2785 28.2491 27.222 28.1839 27.1986C28.1183 27.1699 28.0571 27.172 28.0004 27.2051C27.9432 27.2328 27.8755 27.2915 27.7973 27.3815L27.708 27.3086C27.7764 27.2307 27.8667 27.1259 27.9789 26.9944C28.091 26.8628 28.2089 26.7211 28.3325 26.5693C28.4393 26.4384 28.5433 26.3076 28.6446 26.1772C28.7483 26.0438 28.8327 25.9342 28.8976 25.8484Z" fill="#222222"/>
<path d="M30.1889 23.2542L34.0493 23.2862C34.1954 23.2822 34.3048 23.2616 34.3774 23.2243C34.4515 23.1835 34.4995 23.1405 34.5215 23.0955L34.6286 23.138C34.5761 23.2495 34.518 23.3854 34.4543 23.5461C34.3884 23.7016 34.3229 23.8615 34.2578 24.0257C34.1898 24.1971 34.1271 24.3602 34.0698 24.5151C34.0089 24.6686 33.9636 24.7931 33.9339 24.8888L33.8269 24.8463C33.8919 24.6614 33.9077 24.5334 33.8739 24.4622C33.8366 24.3895 33.7128 24.3528 33.5025 24.352L30.7191 24.2763L30.601 24.1055L32.3093 25.6881C32.4909 25.8551 32.6441 25.9738 32.7692 26.0441C32.8941 26.1142 32.9994 26.1457 33.085 26.1384C33.1705 26.131 33.2424 26.0954 33.3007 26.0318C33.3605 25.9646 33.4133 25.8782 33.4594 25.7726L33.5664 25.815C33.5098 25.9371 33.4601 26.0517 33.4177 26.1588C33.373 26.2609 33.3267 26.3726 33.2785 26.4939C33.2502 26.5654 33.2229 26.6393 33.1967 26.7156C33.1685 26.787 33.1472 26.8508 33.1331 26.9072L33.026 26.8647C33.0429 26.7806 33.0241 26.6822 32.9695 26.5697C32.9165 26.4536 32.8002 26.3145 32.6208 26.1525L30.0041 23.72C30.0396 23.6514 30.0736 23.5762 30.1062 23.4941C30.1402 23.4083 30.1677 23.3284 30.1889 23.2542ZM32.5534 23.8701L32.6605 23.9126L32.0275 25.5081L31.9416 25.4121L32.5534 23.8701ZM29.0564 22.5632C29.0448 22.4677 29.068 22.3778 29.1262 22.2934C29.1859 22.2056 29.2706 22.1587 29.3804 22.1526C29.4745 22.1445 29.5562 22.1728 29.6256 22.2375C29.6928 22.2972 29.7316 22.3766 29.7418 22.4757C29.7556 22.5762 29.7524 22.6782 29.732 22.7817C29.7116 22.8851 29.6887 23.0103 29.6635 23.1573C29.6383 23.3042 29.6202 23.4954 29.6095 23.7308L29.5304 23.7427C29.4556 23.5147 29.3848 23.3339 29.3182 23.1999C29.2479 23.0647 29.188 22.95 29.1385 22.856C29.0905 22.7585 29.0631 22.6609 29.0564 22.5632Z" fill="#222222"/>
<path d="M4.224 21.696C4.75419 21.696 5.184 21.2662 5.184 20.736C5.184 20.2058 4.75419 19.776 4.224 19.776C3.69381 19.776 3.264 20.2058 3.264 20.736C3.264 21.2662 3.69381 21.696 4.224 21.696Z" fill="#222222"/>
<path d="M4.416 17.5489C4.94619 17.5489 5.376 17.1191 5.376 16.5889C5.376 16.0587 4.94619 15.6289 4.416 15.6289C3.88581 15.6289 3.456 16.0587 3.456 16.5889C3.456 17.1191 3.88581 17.5489 4.416 17.5489Z" fill="#222222"/>
<path d="M5.7225 13.5551C6.25269 13.5551 6.6825 13.1253 6.6825 12.5951C6.6825 12.0649 6.25269 11.6351 5.7225 11.6351C5.19231 11.6351 4.7625 12.0649 4.7625 12.5951C4.7625 13.1253 5.19231 13.5551 5.7225 13.5551Z" fill="#222222"/>
<path d="M8.064 10.0991C8.59419 10.0991 9.024 9.66932 9.024 9.13913C9.024 8.60893 8.59419 8.17913 8.064 8.17913C7.53381 8.17913 7.104 8.60893 7.104 9.13913C7.104 9.66932 7.53381 10.0991 8.064 10.0991Z" fill="#222222"/>
<path d="M11.2515 7.44975C11.7817 7.44975 12.2115 7.01994 12.2115 6.48975C12.2115 5.95956 11.7817 5.52975 11.2515 5.52975C10.7213 5.52975 10.2915 5.95956 10.2915 6.48975C10.2915 7.01994 10.7213 7.44975 11.2515 7.44975Z" fill="#222222"/>
<path d="M15.0915 5.76C15.6217 5.76 16.0515 5.33019 16.0515 4.8C16.0515 4.26981 15.6217 3.84 15.0915 3.84C14.5613 3.84 14.1315 4.26981 14.1315 4.8C14.1315 5.33019 14.5613 5.76 15.0915 5.76Z" fill="#222222"/>
<path d="M19.2 5.184C19.7302 5.184 20.16 4.75419 20.16 4.224C20.16 3.69381 19.7302 3.264 19.2 3.264C18.6698 3.264 18.24 3.69381 18.24 4.224C18.24 4.75419 18.6698 5.184 19.2 5.184Z" fill="#222222"/>
<path d="M23.3475 5.76C23.8777 5.76 24.3075 5.33019 24.3075 4.8C24.3075 4.26981 23.8777 3.84 23.3475 3.84C22.8173 3.84 22.3875 4.26981 22.3875 4.8C22.3875 5.33019 22.8173 5.76 23.3475 5.76Z" fill="#222222"/>
<path d="M27.1485 7.44975C27.6787 7.44975 28.1085 7.01994 28.1085 6.48975C28.1085 5.95956 27.6787 5.52975 27.1485 5.52975C26.6183 5.52975 26.1885 5.95956 26.1885 6.48975C26.1885 7.01994 26.6183 7.44975 27.1485 7.44975Z" fill="#222222"/>
<path d="M30.336 10.1378C30.8662 10.1378 31.296 9.70794 31.296 9.17775C31.296 8.64756 30.8662 8.21775 30.336 8.21775C29.8058 8.21775 29.376 8.64756 29.376 9.17775C29.376 9.70794 29.8058 10.1378 30.336 10.1378Z" fill="#222222"/>
<path d="M32.6775 13.5551C33.2077 13.5551 33.6375 13.1253 33.6375 12.5951C33.6375 12.0649 33.2077 11.6351 32.6775 11.6351C32.1473 11.6351 31.7175 12.0649 31.7175 12.5951C31.7175 13.1253 32.1473 13.5551 32.6775 13.5551Z" fill="#222222"/>
<path d="M33.984 17.5871C34.5142 17.5871 34.944 17.1573 34.944 16.6271C34.944 16.0969 34.5142 15.6671 33.984 15.6671C33.4538 15.6671 33.024 16.0969 33.024 16.6271C33.024 17.1573 33.4538 17.5871 33.984 17.5871Z" fill="#222222"/>
<path d="M34.1385 21.696C34.6687 21.696 35.0985 21.2662 35.0985 20.736C35.0985 20.2058 34.6687 19.776 34.1385 19.776C33.6083 19.776 33.1785 20.2058 33.1785 20.736C33.1785 21.2662 33.6083 21.696 34.1385 21.696Z" fill="#222222"/>
<path d="M19.852 9.56888C19.7103 9.56858 19.5689 9.57572 19.4283 9.59024C17.0158 9.84091 14.7312 11.6583 13.5385 13.7574C13.543 13.7541 13.5475 13.7506 13.5521 13.7473L13.8407 13.5399L14.0525 13.8134C14.1126 13.891 14.1635 13.9774 14.2085 14.0715C14.515 13.4566 15.045 12.8558 15.7693 12.451L16.0636 12.2866L16.2467 12.5529C16.3435 12.6936 16.4134 12.8588 16.4677 13.0457C16.8501 12.4604 17.4577 11.9116 18.2372 11.5827L18.5505 11.4504L18.6983 11.7343C18.7042 11.7456 18.7098 11.7572 18.7154 11.7688C19.0937 11.307 19.6155 10.892 20.2517 10.6235L20.565 10.4912L20.7129 10.775C20.7653 10.8757 20.8037 10.9866 20.8329 11.1061C21.1589 10.729 21.5898 10.3836 22.1018 10.1305C21.3824 9.78262 20.6168 9.57011 19.852 9.56888ZM25.2852 10.2655C24.4507 10.4375 23.7043 10.9147 23.3505 11.3649C23.1441 11.6276 23.0913 11.8578 23.1259 11.9763C23.1606 12.095 23.2596 12.2108 23.6792 12.2763C23.8255 12.2991 23.9906 12.2497 24.1932 12.0971C24.3958 11.9446 24.608 11.6969 24.787 11.4164C24.9661 11.136 25.1143 10.8233 25.2105 10.5461C25.2458 10.4441 25.2652 10.3545 25.2852 10.2655ZM22.537 10.6432C21.7757 10.9985 21.1832 11.6294 20.9637 12.1456C20.9249 12.2368 20.8991 12.3216 20.8836 12.399C20.8785 12.446 20.8725 12.4932 20.8659 12.5404C20.8611 12.6499 20.8805 12.7351 20.9134 12.7886C20.9794 12.8956 21.1069 12.9854 21.5313 12.9539C21.6793 12.9429 21.8256 12.8578 21.9802 12.6642C22.1346 12.4707 22.2725 12.1827 22.3692 11.8706C22.4658 11.5585 22.5238 11.2222 22.5413 10.9319C22.5476 10.8251 22.5419 10.7339 22.537 10.6432ZM20.1723 11.3894C19.5799 11.7428 19.1252 12.2726 18.8963 12.7478C18.9032 13.0482 18.8797 13.373 18.8203 13.6914L18.8198 13.6934C18.9001 13.7864 19.0435 13.8529 19.4418 13.7841C19.5877 13.759 19.7234 13.6602 19.8544 13.4528C19.9854 13.2455 20.089 12.9458 20.1487 12.6261C20.2084 12.3064 20.2268 11.9664 20.2102 11.676C20.2041 11.5692 20.1877 11.4791 20.1723 11.3894ZM18.1577 12.3487C17.4421 12.7754 16.9266 13.4599 16.7686 13.9943C16.6764 14.3061 16.7154 14.5385 16.7936 14.6385C16.8717 14.7386 17.009 14.8156 17.4272 14.7434C17.5731 14.7182 17.7087 14.6194 17.8397 14.412C17.9708 14.2047 18.0743 13.905 18.134 13.5853C18.1938 13.2657 18.2122 12.9256 18.1955 12.6353C18.1895 12.5284 18.1731 12.4384 18.1577 12.3487ZM24.8368 12.416C24.7737 12.4755 24.707 12.5318 24.6371 12.5847C24.3397 12.8086 23.9641 12.963 23.5613 12.9001C23.4922 12.8893 23.4237 12.8754 23.356 12.8582C23.3479 12.8777 23.3409 12.8963 23.335 12.914C23.7172 13.0505 24.0828 13.2287 24.3905 13.4173C24.4093 13.4289 24.4272 13.4404 24.4457 13.452C24.9991 13.4008 25.6608 13.1911 26.1985 12.8203C26.1106 12.7771 26.0228 12.7329 25.9142 12.6919C25.6189 12.5804 25.2602 12.4823 24.909 12.4264C24.8848 12.4226 24.8609 12.4195 24.8368 12.416ZM15.7883 13.2203C15.1321 13.7197 14.7076 14.4541 14.619 15.0016C14.5673 15.321 14.6358 15.5476 14.7262 15.6388C14.8165 15.7299 14.9628 15.7918 15.3689 15.6759C15.5106 15.6355 15.6326 15.523 15.7362 15.3032C15.8399 15.0834 15.9045 14.7748 15.9229 14.451C15.9414 14.1272 15.9162 13.7875 15.8626 13.5009C15.8428 13.3954 15.8151 13.3077 15.7883 13.2203ZM22.2678 13.3115C22.0785 13.4601 21.8511 13.5653 21.5877 13.5848C21.5577 13.5871 21.5281 13.5883 21.4986 13.5894C21.3376 13.792 21.3458 13.9095 21.3907 14.0029C21.4449 14.1154 21.6438 14.2655 21.9852 14.3542C22.5704 14.5064 23.4811 14.4572 24.252 14.1193C24.1754 14.0611 24.0988 14.0019 24.0013 13.9421C23.7362 13.7796 23.4062 13.6189 23.074 13.5007C22.7922 13.4005 22.5082 13.3327 22.2678 13.3115ZM25.6189 13.8453C25.4487 13.9064 25.2741 13.9572 25.0965 13.9972C25.1008 14.0029 25.1054 14.0086 25.1096 14.0144L25.301 14.2758L25.0149 14.4518C24.2256 14.9377 23.2902 15.1195 22.4822 15.0692C22.5277 15.132 22.5677 15.1956 22.6003 15.2603L22.7439 15.546L22.4309 15.6788C21.7321 15.9751 20.9737 16.0613 20.2916 15.9957C20.4201 16.1773 20.5167 16.3529 20.5667 16.5293L20.6531 16.8334L20.3193 16.9143C19.6811 17.0688 19.0294 17.0646 18.4414 16.9513C18.5341 17.0957 18.6048 17.2371 18.6451 17.3791L18.7314 17.6832L18.3977 17.7641C17.7264 17.9266 17.0402 17.9134 16.429 17.7826C16.5528 17.9757 16.6418 18.1584 16.6769 18.3457L16.7384 18.6743L16.3743 18.7131C15.2402 18.8341 14.1244 18.4772 13.4493 17.9683C13.2912 17.8492 13.1508 17.7182 13.0466 17.5739C13.7422 19.6552 15.472 21.9192 15.472 21.9192L14.0999 24.3384C16.014 25.237 18.1678 25.6996 20.6958 25.4818C20.6274 24.3531 21.3328 23.5191 21.9728 22.8616C21.4085 22.8273 20.8131 22.7832 20.2385 22.6835C19.6001 22.5725 18.9801 22.3902 18.4595 22.0494C17.9388 21.7087 17.5301 21.2018 17.3398 20.5127L18.0148 20.3585C18.1691 20.9169 18.4643 21.2727 18.8661 21.5357C19.2678 21.7987 19.7889 21.9609 20.3692 22.0618C21.3559 22.2332 22.4865 22.2175 23.4457 22.3305C24.4801 22.2595 25.6527 22.422 25.8991 22.0283C26.5011 21.0662 26.0946 19.7803 25.766 18.7759C26.48 18.7545 26.8557 18.7165 27.264 18.6013C26.9311 17.3881 26.4187 16.6713 25.5739 16.0167C25.6369 15.2975 25.7361 14.5381 25.6189 13.8453ZM20.0616 14.1981C19.9212 14.2991 19.7583 14.3738 19.5716 14.4061C19.3726 14.4404 19.1826 14.4466 19.008 14.427C18.9155 14.5423 18.9086 14.6289 18.9275 14.7041C19.0493 14.7815 19.1678 14.8659 19.2824 14.955C19.3781 15.0297 19.4709 15.1075 19.5607 15.1881C20.1177 15.3902 20.9652 15.4501 21.7352 15.2407C21.6697 15.1722 21.6045 15.1029 21.5185 15.0297C21.285 14.8312 20.987 14.625 20.6796 14.4607C20.4713 14.3494 20.2582 14.2587 20.0616 14.1981ZM13.6463 14.5437C13.1759 15.0331 12.8955 15.6885 12.8658 16.1688C12.8476 16.4621 12.9297 16.6637 13.001 16.7284C13.0724 16.7932 13.1592 16.8362 13.4832 16.7069C13.5792 16.6686 13.6736 16.5661 13.7435 16.3605C13.8134 16.155 13.8437 15.8697 13.8332 15.574C13.8228 15.2783 13.7739 14.9712 13.7053 14.7147C13.6879 14.6501 13.6663 14.6011 13.6463 14.5437ZM18.1896 15.0394C18.0207 15.1998 17.8108 15.3214 17.557 15.3652C17.3823 15.3954 17.2144 15.4041 17.0578 15.3926C17.058 15.3975 17.0582 15.4025 17.0586 15.4073C17.0652 15.4845 17.121 15.5931 17.2339 15.7094C17.2767 15.7405 17.319 15.7723 17.3608 15.8048C17.4128 15.8454 17.4639 15.887 17.5141 15.9294C18.0151 16.2411 18.8801 16.4597 19.7188 16.3721C19.6676 16.2943 19.6166 16.2155 19.5461 16.1299C19.3545 15.8972 19.1009 15.6468 18.8299 15.4359C18.6183 15.2713 18.3949 15.1322 18.1896 15.0394ZM16.1909 15.8557C16.0405 16.0483 15.8391 16.2052 15.5773 16.2799C15.4365 16.3201 15.2983 16.3452 15.1657 16.3555C15.2195 16.4734 15.3495 16.6245 15.5715 16.7666C16.0692 17.0851 16.9471 17.3106 17.7973 17.2219C17.7459 17.1441 17.6951 17.0653 17.6246 16.9796C17.4329 16.7469 17.1792 16.4965 16.9083 16.2857C16.6699 16.1003 16.4164 15.9466 16.1909 15.8557ZM14.3111 16.7748C14.1959 16.9928 14.0213 17.1834 13.763 17.2864C13.7436 17.2943 13.724 17.301 13.7044 17.3081C13.761 17.3713 13.8244 17.4292 13.8936 17.4811C14.3025 17.7893 15.0516 18.0626 15.8137 18.0948C15.786 18.0491 15.767 18.0091 15.7332 17.9611C15.5809 17.7461 15.3729 17.5084 15.145 17.3023C14.9172 17.0964 14.6675 16.9226 14.4485 16.8265C14.4038 16.8068 14.358 16.7895 14.3111 16.7748ZM12.4288 17.0934L11.136 17.8457L11.5112 18.3788L13.0036 17.5104C12.9778 17.4692 12.9549 17.4265 12.9353 17.3826C12.7715 17.3496 12.6251 17.2814 12.5095 17.1766C12.4808 17.1503 12.4538 17.1225 12.4288 17.0934Z" fill="#222222"/>
</svg>
